inDegrees=no
num_controls=7
num_derivatives=13
num_iterations=135
num_multipliers=7
num_parameters=0
num_slacks=7
num_states=26
objective=0.475948
objective_accelerations=0.045955
objective_balance=0.003655
objective_effort=0.041808
objective_height=0.378843
objective_ligament=0.005686
solver_duration=1821.474718
status=Solve_Succeeded
success=true
DataType=double
version=3
OpenSimVersion=4.5
endheader
time	/jointset/ground_pelvis/pelvis_tilt/value	/jointset/ground_pelvis/pelvis_tx/value	/jointset/ground_pelvis/pelvis_ty/value	/jointset/hip_l/hip_flexion_l/value	/jointset/hip_l/hip_adduction_l/value	/jointset/hip_l/hip_rotation_l/value	/jointset/back/lumbar_extension/value	/jointset/patellofemoral_l/patellar_flexion_l/value	/jointset/knee_l/knee_flexion_l/value	/jointset/knee_l/knee_adduction_l/value	/jointset/knee_l/knee_rotation_l/value	/jointset/ankle_l/ankle_angle_l/value	/jointset/subtalar_l/subtalar_angle_l/value	/jointset/ground_pelvis/pelvis_tilt/speed	/jointset/ground_pelvis/pelvis_tx/speed	/jointset/ground_pelvis/pelvis_ty/speed	/jointset/hip_l/hip_flexion_l/speed	/jointset/hip_l/hip_adduction_l/speed	/jointset/hip_l/hip_rotation_l/speed	/jointset/back/lumbar_extension/speed	/jointset/patellofemoral_l/patellar_flexion_l/speed	/jointset/knee_l/knee_flexion_l/speed	/jointset/knee_l/knee_adduction_l/speed	/jointset/knee_l/knee_rotation_l/speed	/jointset/ankle_l/ankle_angle_l/speed	/jointset/subtalar_l/subtalar_angle_l/speed	/forceset/tau_hip_flexion_l	/forceset/tau_hip_adduction_l	/forceset/tau_hip_rotation_l	/forceset/tau_knee_flexion_l	/forceset/tau_ankle_angle_l	/forceset/tau_subtalar_angle_l	/forceset/tau_lumbar_extension	lambda_cid13_p0	lambda_cid13_p1	lambda_cid13_p2	lambda_cid13_p3	lambda_cid13_p4	lambda_cid13_p5	lambda_cid14_p0	/jointset/ground_pelvis/pelvis_tilt/accel	/jointset/ground_pelvis/pelvis_tx/accel	/jointset/ground_pelvis/pelvis_ty/accel	/jointset/hip_l/hip_flexion_l/accel	/jointset/hip_l/hip_adduction_l/accel	/jointset/hip_l/hip_rotation_l/accel	/jointset/back/lumbar_extension/accel	/jointset/patellofemoral_l/patellar_flexion_l/accel	/jointset/knee_l/knee_flexion_l/accel	/jointset/knee_l/knee_adduction_l/accel	/jointset/knee_l/knee_rotation_l/accel	/jointset/ankle_l/ankle_angle_l/accel	/jointset/subtalar_l/subtalar_angle_l/accel	gamma_cid13_p0	gamma_cid13_p1	gamma_cid13_p2	gamma_cid13_p3	gamma_cid13_p4	gamma_cid13_p5	gamma_cid14_p0
1	-0.1185174607139824	-0.0606288791730061	0.6687841379152951	1.37317953038525	-0.3256602730064493	0.07839515908042598	-0.9599310885968813	1.437325852857458	1.43732585285747	-0.0546556065090322	-0.1745294465337158	0.283487061667677	0.06992102623646078	0.1003663576059679	0.02484848742244382	0.06885482721481717	-0.291414310868735	-0.007886582481069087	-0.06309962353829845	9.32421692066047e-05	-0.1528917610332634	-0.1528917610332693	-0.001268791802856734	-4.03638339199851e-05	0.03000253509021472	0.003984924803217439	-0.3813155474083159	0.01716375392885499	0.002041171301412199	-0.3841324154690361	0.03969032388368944	0.02156325384935082	0.4305249264041351	-39.00722716566347	-0.9376585258382854	-2.129410881590749	14.67328417271737	-803.9181260248355	-66.45332343901235	-0.04105797242611518	0.8225185228535	-0.03165371003247779	1.617498193734119	-5.12670300649709	-0.1475118471563726	-1.662828365164821	-0.01702927473897298	-5.128784578497001	-5.128784578497032	-0.4168399744282328	-0.01985367452204126	-1.189708078314244	-0.7027466213013178	-8.155696288708875e-09	2.103817451691258e-08	5.364888907974127e-08	5.528039442165808e-09	-2.218417198012686e-08	1.294761985676361e-07	-1.573875411407072e-08
1.01	-0.1174729220119902	-0.06038193174633766	0.669553399382678	1.37000967613049	-0.3257457482381648	0.07768024631513074	-0.9599305864805846	1.435540708452588	1.435540708452598	-0.05468732287152214	-0.1745298066382014	0.283727649205595	0.06992679555172836	0.1085525852876582	0.02454635691543251	0.08499114148161264	-0.3425565089065603	-0.009197894558096014	-0.07987819567391585	6.248344409273001e-06	-0.204144416595365	-0.2041444165953668	-0.005073329607949487	-2.987707739275061e-05	0.01809638275042039	-0.002825438556860026	-0.3804792836080237	0.01737038467148902	0.001973298982270554	-0.3840435170477794	0.0396228962733163	0.02168828913706291	0.4301084656694024	-38.99767535690071	-1.003339938074012	-2.107852699877231	14.56036231199195	-803.6111936332695	-66.52340722490777	-0.04109195270992694	0.8183532781899664	-0.0286859890476496	1.61074330701551	-5.107976337490057	-0.1213614712684259	-1.68467820610816	-0.004942792152125113	-5.12459620041779	-5.124596200417108	-0.3620993665128347	0.01178734127563281	-1.193857702505701	-0.6693493043978259	-1.561004193749315e-08	1.341734591342857e-08	8.131780815454106e-08	1.431804375432592e-08	-3.001646741978203e-08	1.490526022387541e-07	-2.165459212906048e-08
1.02	-0.1163461853557093	-0.06013784427834173	0.6704838330455013	1.366328400268338	-0.3258440207073089	0.07679768651480956	-0.9599310270255487	1.433242819461028	1.433242819461034	-0.05475705234865553	-0.1745300043770163	0.2838486174419761	0.06986462761118785	0.1168059484638761	0.02427649568793873	0.1010892663029275	-0.3936986323469789	-0.01044602996682586	-0.09662903054345207	-9.707971247067566e-05	-0.25544067837151	-0.2554406783715063	-0.008871414731564026	-7.890699444290085e-06	0.006078674782878454	-0.00960252635841238	-0.3796430198077316	0.01757701541412363	0.001905426663132635	-0.3839546186265232	0.03955546866294295	0.02181332442477563	0.4296920049346699	-38.99913599357848	-1.066099123307678	-2.0878958760937	14.50593359754244	-803.4451567361843	-66.56864681082845	-0.04112703460704228	0.8359456217590223	-0.02519985412897214	1.609860304637996	-5.126688087015782	-0.1348765134969507	-1.657280911948582	-0.02029612115547939	-5.137505821305678	-5.137505821305455	-0.4155494381325874	-0.01755375023778573	-1.212019203863768	-0.6960915095962901	-2.215880533516433e-08	4.369157630855724e-09	1.090569210190439e-07	1.973008715951005e-08	-3.601152819135209e-08	1.706130861921833e-07	-2.830151735618961e-08
1.03	-0.115137038866829	-0.05989605455104294	0.6715749811254463	1.362136070587727	-0.3259544514385956	0.07574784465146035	-0.9599306908252088	1.430431960860364	1.430431960860362	-0.05486473021259113	-0.174529927875795	0.2838491810220531	0.06973502805260613	0.1249894929335105	0.02411101682141291	0.1171267247368308	-0.4447326749118464	-0.01163098135945229	-0.1133289931878029	0.0003500907899517993	-0.3067181083184446	-0.3067181083184463	-0.01266329237187324	2.0370941809303e-05	-0.005951697552036481	-0.01629750402524329	-0.3801057776891296	0.01787645158940668	0.001795038172525963	-0.3833237188974538	0.03941064984940718	0.02204553356385945	0.4308537833986201	-39.04115591320043	-1.183966347740251	-2.041261125722463	13.99644633065156	-803.9639633538197	-66.60764639929785	-0.04116748811295999	0.8044777728902018	-0.00778179135301179	1.598636436590008	-5.086571891869203	-0.1089462767791866	-1.674829294982642	0.1050892854667623	-5.120914533431744	-5.120914533432674	-0.3608963067346199	0.0126256299573909	-1.196409079727374	-0.6532338613087396	-2.869832809762007e-08	-4.693595546401711e-09	1.367967501467071e-07	2.510766157584746e-08	-4.198784167039065e-08	1.921938158627789e-07	-3.4955902656912e-08
1.04	-0.1138470731505878	-0.05965503159009711	0.6728260933544952	1.357434438571338	-0.3260764600487352	0.07453130809080591	-0.9599203097898484	1.42710871736982	1.427108717369812	-0.05501030472888086	-0.1745296468564346	0.2837298683124966	0.06953907212413966	0.1329697939361275	0.02412314241734572	0.1330820961236703	-0.4955590995025928	-0.01276160573742635	-0.1299679700043263	0.001911887273397322	-0.3579176563471557	-0.3579176563471635	-0.01645074520236406	3.301292908101369e-05	-0.01789658314383255	-0.02287380033536453	-0.3805685355705254	0.01817588776468885	0.001684649681924439	-0.3826928191683845	0.03926583103587054	0.02227774270294161	0.4320155618625723	-39.09443696711506	-1.298844638839817	-1.996264832612872	13.54457240662439	-804.6275354615591	-66.6224068309548	-0.04120886862258723	0.7952969283555447	0.01032103836275685	1.593442895225246	-5.085164492191551	-0.1240111105664744	-1.645083746383077	0.2026290750489398	-5.121929437660982	-5.121929437660906	-0.4146644761689084	-0.02067768103416078	-1.194921855239995	-0.6723552382543541	-3.292441319027047e-08	-1.583003124953805e-08	1.629394267460737e-07	2.566912627894686e-08	-4.710016422537569e-08	2.046699878277795e-07	-4.077781334230077e-08
1.05	-0.112478402537599	-0.05941298768281167	0.6742362369227356	1.35222591144475	-0.3262094627139531	0.0731487841385132	-0.9598886817276713	1.423274053051231	1.42327405305123	-0.0551937201986317	-0.174529310722928	0.2834914854916826	0.06927799241759404	0.1407207273518657	0.02431642098855336	0.1489216578510164	-0.546077273744898	-0.01382523782897344	-0.1465204046976987	0.004607193452835568	-0.4089839547131071	-0.4089839547131006	-0.02022643933374597	3.273103349311649e-05	-0.02977042458735863	-0.02931695133262626	-0.3806232817842927	0.01846146663546998	0.001540292560542636	-0.3817827527248436	0.03928587120591064	0.02258892139713046	0.4328350196280072	-39.05419282594136	-1.475400605701564	-1.928864301705656	12.98656103818637	-804.7562968241433	-66.69294080247292	-0.04126531082179002	0.7584478623239913	0.02845377899325228	1.575458372017901	-5.024791022363096	-0.09550438598640873	-1.657898506522947	0.3320016328808249	-5.094282764121009	-5.094282764118907	-0.3581615619639268	0.01011740833495518	-1.182184750821825	-0.6265343602918407	-3.707820335573947e-08	-2.703126953160809e-08	1.890321923289311e-07	2.60800875535076e-08	-5.218548706398406e-08	2.168616423644803e-07	-4.657370919596036e-08
1.06	-0.1110335313276246	-0.05916808648731544	0.675804025220355	1.34651427314932	-0.3263526947255935	0.0716012208041443	-0.9598242965549971	1.41892966520337	1.418929665203375	-0.05541472054576618	-0.1745290132379486	0.2831346503640507	0.06895323333510987	0.1482099133332457	0.02469460005950327	0.164611041999508	-0.5961813332717256	-0.01480747502202384	-0.1629758464194163	0.00846330937185568	-0.4598623622014106	-0.4598623622013902	-0.02396772067877167	2.52832241471069e-05	-0.04158704450740142	-0.03560967552307879	-0.3806780279980476	0.01874704550625154	0.001395935439152597	-0.3808726862813025	0.03930591137594841	0.02290010009131899	0.4336544773934529	-39.02540971504951	-1.648905321158987	-1.86314338169313	12.48447149435085	-805.0328866806223	-66.74067663731932	-0.04132292564956722	0.7429474414838604	0.04730113831121611	1.563407379454342	-5.002341549095997	-0.1077321308671404	-1.625685152052126	0.4347910229652905	-5.084351262131408	-5.084351262131388	-0.4077819188976647	-0.0221108637857926	-1.183477550543334	-0.6422698768925198	-4.221382380973995e-08	-3.921304025773515e-08	2.127229722873982e-07	2.838067612449785e-08	-5.82573236872295e-08	2.259473595204482e-07	-5.19361358060489e-08
1.07	-0.1095149653476746	-0.05891845185331308	0.6775279195392887	1.340303615208472	-0.3265053105332273	0.0698896835114719	-0.9597155965972992	1.41407747720211	1.414077477202114	-0.05567300928963041	-0.1745288056190594	0.282659923971655	0.06856634741326298	0.155469770153233	0.02526590640896743	0.1801391560723104	-0.6458858016432121	-0.01569868282285522	-0.1793107193086824	0.01346669021981902	-0.5105402120526747	-0.5105402120526866	-0.02768434060666875	1.67861607396027e-05	-0.05334972621027521	-0.0417371998815179	-0.3805900379135312	0.01908647308397124	0.001218087938721701	-0.3796538092892864	0.03934364757295745	0.02328180541041315	0.4343690777001086	-38.96543766109057	-1.868453141658122	-1.778713773159903	11.90427507318272	-805.010365558967	-66.82184808802148	-0.0413952135605875	0.712473765296202	0.06708852377916832	1.543200601022908	-4.94483742382348	-0.07728855929523974	-1.634301516910706	0.561612823475529	-5.054236416330791	-5.054236416335649	-0.3527816997735031	0.009915530724916848	-1.171391661081853	-0.5934667595003692	-4.740166927908786e-08	-5.144696696492909e-08	2.362859870530786e-07	3.078177678572373e-08	-6.438163444795565e-08	2.348678672412707e-07	-5.72755055414794e-08
1.08	-0.1079248070069166	-0.05866209552771304	0.6794062324349163	1.333597844995383	-0.3266663331097895	0.06801541485799634	-0.9595511625895671	1.408719563788396	1.408719563788397	-0.05596830016678248	-0.1745286560391355	0.2820678251260461	0.06811909163899557	0.1625283854948223	0.0260389383790396	0.1954947573383046	-0.695203787720638	-0.01648882880785047	-0.1955221185798227	0.01961011937832912	-0.5610074446922141	-0.5610074446922584	-0.03136814733607689	1.367543105745186e-05	-0.06506153515004724	-0.04768364600718792	-0.380502047829002	0.01942590066169037	0.001040240438286827	-0.3784349322972698	0.03938138376996392	0.02366351072950548	0.4350836780067758	-38.91721792829797	-2.084820516759375	-1.696073698367688	11.37812286886305	-805.1400441235905	-66.88184394304778	-0.04146893705819347	0.7026991458042705	0.08764626243282155	1.528904818092683	-4.925045090283886	-0.08751976769992209	-1.60099042842697	0.6628006850746319	-5.04222781978645	-5.042227819786447	-0.4012192791998785	-0.02103359704073573	-1.173302997922981	-0.606054230338711	-5.192927294284959e-08	-6.426970625186003e-08	2.562500129155033e-07	3.200340912901136e-08	-6.957467904860601e-08	2.391669527300446e-07	-6.192683794661914e-08
